<?xml version="1.0" encoding="UTF-8"?>
<svg width="800px" height="471px" xmlns="http://www.w3.org/2000/svg" viewBox="0 0 607.81 357.44">
  <defs>
    <style>.cls-1{isolation:isolate;}.cls-10,.cls-2{fill:#4d4d4d;}.cls-14,.cls-2{opacity:0.2;}.cls-3{fill:#5bdfb9;}.cls-4{fill:#76bbf4;}.cls-5{fill:#009;}.cls-21,.cls-24,.cls-6{mix-blend-mode:multiply;}.cls-21,.cls-7{fill:#cbcbd3;}.cls-8{fill:#f58025;}.cls-9{fill:#e8a900;}.cls-11{fill:gray;}.cls-12{fill:#05c4c9;}.cls-13{fill:#0da3b2;}.cls-15{fill:#0056cb;}.cls-16{fill:#e5c683;}.cls-17,.cls-22{fill:#fff;}.cls-18,.cls-24{fill:#e4e4e5;}.cls-19{fill:#b3b3b3;}.cls-20{fill:#00b1ff;}.cls-22{opacity:0.4;}.cls-23{fill:#f2f2f2;}.cls-25{fill:#70644b;}.cls-26{fill:#aa1721;}.cls-27{fill:#cb2c30;}</style>
  </defs>
  <title>Expedia-EPS-Illustration13-contact</title>
  <g class="cls-1">
    <g id="Capa_1" data-name="Capa 1">
      <polygon class="cls-2" points="528.79 235.31 366.43 138.64 298.55 171.94 218.72 126.08 87.33 207.01 20.27 245.02 182.67 341.7 314.05 260.76 476.45 357.44 607.81 276.49 528.79 235.31"></polygon>
      <polygon class="cls-3" points="162.4 206.31 0 109.63 131.39 28.7 293.79 125.37 162.4 206.31"></polygon>
      <polygon class="cls-4" points="471.69 310.87 309.29 214.18 440.68 133.23 603.05 229.92 471.69 310.87"></polygon>
      <polygon class="cls-5" points="425.18 44.43 293.79 125.37 162.4 206.31 0 109.63 1.03 189.78 177.9 295.13 309.29 214.18 440.68 133.23 603.05 229.92 603.35 149.66 425.18 44.43"></polygon>
      <g class="cls-6">
        <polygon class="cls-7" points="38.27 111.56 23.36 101.18 21.61 98.28 29.88 93.41 26.58 92.78 29.06 90.94 32.31 92.57 38.27 90.15 38.27 111.56"></polygon>
      </g>
      <path class="cls-8" d="M189.18,328.31s2.76,13.26,2.76,13.75c0,1.43,1,2.72,2.63,3.65a12.86,12.86,0,0,0,6.32,1.51c4.93,0,8.91-2.31,8.89-5.17,0-.48,2.81-13.31,2.59-13.75C211.95,327.44,190.24,326.15,189.18,328.31Z" transform="translate(-155.62 -233.72)"></path>
      <path class="cls-9" d="M208.94,323.06a16.66,16.66,0,0,0-8.18-2c-6.38,0-11.54,3-11.51,6.69,0,1.85,1.31,3.52,3.41,4.73a16.66,16.66,0,0,0,8.18,2c6.38,0,11.54-3,11.51-6.69C212.34,325.94,211,324.27,208.94,323.06Z" transform="translate(-155.62 -233.72)"></path>
      <path class="cls-10" d="M200.83,334.51c4.31,0,8.06-1.36,10-3.39a6.53,6.53,0,0,0-2.7-2.67,15.14,15.14,0,0,0-7.43-1.78c-4.79,0-8.81,1.86-10.06,4.4a8.88,8.88,0,0,0,1.92,1.46A16.74,16.74,0,0,0,200.83,334.51Z" transform="translate(-155.62 -233.72)"></path>
      <rect class="cls-11" x="42.96" y="70.35" width="3.17" height="26.95" rx="1" ry="1"></rect>
      <path class="cls-12" d="M213.78,296c3.89-13.15-7.72-19.94-17.29-10.12-13.15-3.89-19.94,7.72-10.12,17.29-3.89,13.15,7.72,19.94,17.29,10.12C216.8,317.14,223.6,305.53,213.78,296Z" transform="translate(-155.62 -233.72)"></path>
      <path class="cls-13" d="M205.77,306.33A8.61,8.61,0,0,1,191.59,298c-6-7.62-3.66-15.17,3.56-12.53-12.59-3.12-18.43,8.65-8.79,17.75-3.88,12.92,7.73,19.72,17.29,10.12,12.24,3.9,20-6.43,11.63-15.76C220.82,302.49,215,307.77,205.77,306.33Z" transform="translate(-155.62 -233.72)"></path>
      <path class="cls-11" d="M366.45,299.87l5-35.62a11.8,11.8,0,0,1,2.07-4.86l1.61-1a6.91,6.91,0,0,1,7,0l15,8.13a7.2,7.2,0,0,1,3.53,7.23L394,319.62l-9.54,7-3.73.91Z" transform="translate(-155.62 -233.72)"></path>
      <path class="cls-10" d="M391.7,268.37l-15-8.13a6.89,6.89,0,0,0-3-.9,9.48,9.48,0,0,0-2.24,4.9l-5,35.62,14.25,27.52,7.91-5.92,6.64-45.87A7.2,7.2,0,0,0,391.7,268.37Z" transform="translate(-155.62 -233.72)"></path>
      <polygon class="cls-14" points="195.11 79.31 258.77 117.08 143.81 183.41 80.16 145.63 195.11 79.31"></polygon>
      <rect class="cls-11" x="139.7" y="137.76" width="4.12" height="35.03" rx="1.08" ry="1.08"></rect>
      <rect class="cls-10" x="139.7" y="138" width="4.12" height="15.02" rx="1.08" ry="1.08"></rect>
      <rect class="cls-11" x="241.82" y="80.9" width="4.12" height="35.03" rx="1.08" ry="1.08"></rect>
      <rect class="cls-10" x="241.82" y="81.14" width="4.12" height="15.02" rx="1.08" ry="1.08"></rect>
      <rect class="cls-11" x="87.75" y="109.97" width="4.12" height="35.03" rx="1.08" ry="1.08"></rect>
      <rect class="cls-10" x="87.75" y="110.2" width="4.12" height="15.02" rx="1.08" ry="1.08"></rect>
      <path class="cls-10" d="M308.29,304.25l-5-35.62a9.49,9.49,0,0,0-4.55-6.84l-1.61-1a6.91,6.91,0,0,0-7,0l-15,8.13a7.2,7.2,0,0,0-3.53,7.23L278.21,322l12,9,3.73,0.91Z" transform="translate(-155.62 -233.72)"></path>
      <rect class="cls-15" x="308.75" y="257.02" width="6.3" height="26.71" rx="1.65" ry="1.65" transform="translate(-249.44 112.67) rotate(-51.53)"></rect>
      <path class="cls-4" d="M307.62,270.06c1.33,7-4.54,25-4.54,25a67.32,67.32,0,0,1-9,5.78c-5.18,2.42-10.21-1.13-10.21-1.13s1.72-17.47.08-26.45c-1.76-9.69,9-18.13,16.16-16C303.38,258.27,307.11,267.37,307.62,270.06Z" transform="translate(-155.62 -233.72)"></path>
      <rect class="cls-16" x="288.8" y="234.3" width="14.62" height="23.01" rx="3.83" ry="3.83" transform="translate(-203.52 -160.43) rotate(-13.06)"></rect>
      <path class="cls-16" d="M296,250.32h0c1.62,0,3,1.05,3,2.34v5.76c0,1.29-1.33,2.34-3,2.34h0c-1.62,0-3-1.05-3-2.34v-5.76C293,251.37,294.35,250.32,296,250.32Z" transform="translate(-155.62 -233.72)"></path>
      <path class="cls-10" d="M307.62,299.19L311,323.73s-5.82,5.06-12,1.64l-3.78-16.12Z" transform="translate(-155.62 -233.72)"></path>
      <path class="cls-5" d="M294.14,300.84c3.53-1.65,13.48-7.78,13.48-7.78s0,2.62,0,6.14c0,0-7.16,10.11-9.15,11-1.7.79-7.71,3.27-9.21,3.12a6,6,0,0,1-5.3-6v-7.66S289,303.25,294.14,300.84Z" transform="translate(-155.62 -233.72)"></path>
      <path class="cls-11" d="M299,305.49l-2.47,24.25s-6.77,3.7-12.11-1L284,308.06Z" transform="translate(-155.62 -233.72)"></path>
      <path class="cls-17" d="M293.41,257.84l-0.39-.58-3.54,2.3a6.9,6.9,0,0,0,3.94,4.15,18.52,18.52,0,0,0,3.81.47l1.7-3.35,2.82,2.18L301,257.24l-2.15-.26-1.37,3.19C295.15,260.14,293.41,257.84,293.41,257.84Z" transform="translate(-155.62 -233.72)"></path>
      <path d="M293.67,234.56l-0.32.07c-6.34.82-9.49,7.94-8.36,11.7,2.5,8.33.9,17.84,0.9,17.84,4.07-2.75,8.85,5.43,9.43,6.19,1.1-.5-0.86-17.24-1-18.34-0.49-3.59,2.78-9.73,3.66-9.51,4.91,1.24,6-6.42,6-6.42C299.3,236.3,297.12,233.76,293.67,234.56Z" transform="translate(-155.62 -233.72)"></path>
      <polygon class="cls-17" points="155.86 64.53 153.66 68.34 155.88 69.61 158.08 65.79 155.86 64.53"></polygon>
      <polygon class="cls-3" points="151.44 64.54 149.23 68.36 151.45 69.62 153.65 65.8 151.44 64.54"></polygon>
      <polygon class="cls-5" points="155.86 61.99 153.65 65.8 153.66 68.34 155.86 64.53 158.08 65.79 158.07 63.25 155.86 61.99"></polygon>
      <polygon class="cls-5" points="149.23 68.36 149.24 70.89 151.46 72.16 153.66 68.34 153.65 65.8 151.45 69.62 149.23 68.36"></polygon>
      <polygon class="cls-17" points="148.18 38.16 146.12 41.73 148.19 42.91 150.25 39.34 148.18 38.16"></polygon>
      <polygon class="cls-3" points="144.04 38.17 141.99 41.74 144.06 42.92 146.12 39.35 144.04 38.17"></polygon>
      <polygon class="cls-5" points="148.17 35.79 146.12 39.35 146.12 41.73 148.18 38.16 150.25 39.34 150.25 36.97 148.17 35.79"></polygon>
      <polygon class="cls-5" points="141.99 41.74 141.99 44.11 144.06 45.29 146.12 41.73 146.12 39.35 144.06 42.92 141.99 41.74"></polygon>
      <path class="cls-15" d="M317.43,278.88h0c-1.43-1.33-.51-2.81.81-4.24l13.14-12.81c1.33-1.43,3.49,1.38,2.81,2l-11.74,14.86A3.56,3.56,0,0,1,317.43,278.88Z" transform="translate(-155.62 -233.72)"></path>
      <circle class="cls-16" cx="333.34" cy="262.36" r="2.97" transform="translate(-146.21 302.54) rotate(-78.42)"></circle>
      <polygon class="cls-18" points="193.06 34.59 256.71 72.36 141.76 138.69 78.1 100.91 193.06 34.59"></polygon>
      <polygon class="cls-19" points="256.71 72.42 256.71 79.72 141.76 146.04 141.76 138.75 256.71 72.42"></polygon>
      <polygon class="cls-17" points="141.76 138.69 141.76 145.99 78.1 108.21 78.1 100.91 141.76 138.69"></polygon>
      <polygon class="cls-20" points="181.68 49.73 153.43 65.94 172.31 76.77 200.57 60.56 181.68 49.73"></polygon>
      <path class="cls-21" d="M329.54,306.5L316,298.73l19.71-11.31,13.55,7.77Zm-11.28-7.77,11.28,6.47,17.43-10-11.28-6.47Z" transform="translate(-155.62 -233.72)"></path>
      <polygon class="cls-15" points="139.55 44.37 143.38 63.25 139.66 65.34 132.2 38.39 139.55 44.37"></polygon>
      <path class="cls-4" d="M298.09,288.3h0a3.56,3.56,0,0,1,4.35-2.52l17.25,6.89c1.89,0.5.41,3.73-.46,3.41l-18.62-3.44A3.56,3.56,0,0,1,298.09,288.3Z" transform="translate(-155.62 -233.72)"></path>
      <rect class="cls-4" x="292.33" y="266.89" width="7.11" height="26.71" rx="1.86" ry="1.86" transform="translate(-251.39 -66.16) rotate(-27.39)"></rect>
      <circle class="cls-16" cx="321.22" cy="294.42" r="2.97" transform="translate(-240.74 -96.62) rotate(-21.34)"></circle>
      <polygon class="cls-5" points="208.81 38.76 180.55 54.96 172.31 76.77 200.57 60.56 208.81 38.76"></polygon>
      <polygon class="cls-17" points="216.13 55.73 243.88 71.65 225.33 82.29 197.59 66.37 216.13 55.73"></polygon>
      <polygon class="cls-19" points="149.27 82.13 181.54 101.28 148.3 120.47 116.03 101.31 149.27 82.13"></polygon>
      <polygon class="cls-11" points="181.54 101.31 181.54 105.01 148.3 124.19 148.3 120.49 181.54 101.31"></polygon>
      <polygon class="cls-10" points="148.3 120.47 148.3 124.17 116.03 105.01 116.03 101.31 148.3 120.47"></polygon>
      <g class="cls-6">
        <path class="cls-7" d="M304.07,348.8L280.84,335l23.91-13.79L328,335ZM282.92,335l21.15,12.55L325.89,335l-21.15-12.55Z" transform="translate(-155.62 -233.72)"></path>
        <rect class="cls-7" x="292.45" y="328.71" width="1.05" height="25.8" transform="translate(-305.94 185.48) rotate(-59.31)"></rect>
        <rect class="cls-7" x="298.16" y="325.41" width="1.05" height="25.8" transform="translate(-300.31 188.78) rotate(-59.31)"></rect>
        <rect class="cls-7" x="303.88" y="322.11" width="1.05" height="25.8" transform="translate(-294.68 192.08) rotate(-59.31)"></rect>
        <rect class="cls-7" x="309.59" y="318.81" width="1.05" height="25.8" transform="translate(-289.04 195.38) rotate(-59.31)"></rect>
        <rect class="cls-7" x="315.31" y="315.52" width="1.05" height="25.8" transform="translate(-283.41 198.68) rotate(-59.31)"></rect>
        <rect class="cls-7" x="302.31" y="341.08" width="26.38" height="1.05" transform="translate(-284.08 -30.46) rotate(-29.97)"></rect>
        <rect class="cls-7" x="296.76" y="337.78" width="26.38" height="1.05" transform="translate(-283.17 -33.67) rotate(-29.97)"></rect>
        <rect class="cls-7" x="291.21" y="334.49" width="26.38" height="1.05" transform="translate(-282.27 -36.88) rotate(-29.97)"></rect>
        <rect class="cls-7" x="285.67" y="331.19" width="26.38" height="1.05" transform="matrix(0.87, -0.5, 0.5, 0.87, -281.36, -40.09)"></rect>
        <rect class="cls-7" x="280.12" y="327.89" width="26.38" height="1.05" transform="translate(-280.46 -43.3) rotate(-29.97)"></rect>
      </g>
      <path class="cls-22" d="M304.64,321.61c-4.86-2.86-12.75-2.93-17.62-.15s-4.89,7.35,0,10.21,12.75,2.93,17.62.15S309.5,324.47,304.64,321.61Z" transform="translate(-155.62 -233.72)"></path>
      <path class="cls-4" d="M288.17,324a16.84,16.84,0,0,1,15.28.13c2.12,1.25,3.17,2.87,3.15,4.48l0-2.76c0-1.5-.76-3.08-3.15-4.48-3.85-2.27-11.15-2.49-15.28-.13-2.1,1.2-3.16,2.78-3.18,4.37l0,2.76C285,326.78,286.07,325.2,288.17,324Z" transform="translate(-155.62 -233.72)"></path>
      <g class="cls-1">
        <path class="cls-4" d="M279.37,330.63l0-4.18c0,2.45,1.57,4.91,4.78,6.81l0,4.18C280.52,335.3,279.34,332.91,279.37,330.63Z" transform="translate(-155.62 -233.72)"></path>
        <path class="cls-4" d="M312.22,326.82l0,4.18c0,2.42-1.64,4.81-4.82,6.63-6.27,3.57-17.35,3.24-23.2-.2l0-4.18c6.39,3.77,16.78,3.86,23.2.2C310.58,331.64,312.19,329.24,312.22,326.82Z" transform="translate(-155.62 -233.72)"></path>
      </g>
      <path class="cls-17" d="M307.44,320c-6.39-3.77-16.78-3.86-23.2-.2s-6.44,9.67,0,13.44,16.78,3.86,23.2.2S313.83,323.78,307.44,320Zm-4,11.13a16.9,16.9,0,0,1-15.34-.13c-4.23-2.49-4.21-6.47,0-8.88a16.9,16.9,0,0,1,15.34.13C307.72,324.75,307.71,328.73,303.47,331.14Z" transform="translate(-155.62 -233.72)"></path>
      <polygon class="cls-21" points="208.22 86.9 195.94 80.31 203.64 76.13 218.18 83.46 208.22 86.9"></polygon>
      <g class="cls-1">
        <path class="cls-13" d="M372.1,304.06c2.29,1.32,2.3,3.47,0,4.79a9.11,9.11,0,0,1-8.27,0c-2.29-1.32-2.3-3.47,0-4.79A9.11,9.11,0,0,1,372.1,304.06Z" transform="translate(-155.62 -233.72)"></path>
        <rect class="cls-9" x="363.85" y="294.51" width="1.05" height="20.49" transform="translate(-200.99 -169.29) rotate(-9.52)"></rect>
        <rect class="cls-9" x="358.5" y="304.22" width="20.25" height="1.05" transform="translate(-114.87 419.26) rotate(-86.31)"></rect>
        <rect class="cls-11" x="364.12" y="303.06" width="17.28" height="1.05" transform="translate(-148.45 382.05) rotate(-79.66)"></rect>
        <rect class="cls-5" x="365.92" y="298.53" width="1.05" height="16.33" transform="translate(-169.29 -216.6) rotate(-2.63)"></rect>
        <path class="cls-3" d="M373.83,306.48l0,11.77a2.9,2.9,0,0,1-1.7,2.38,9.11,9.11,0,0,1-8.27,0,2.92,2.92,0,0,1-1.72-2.41l0-11.77a2.92,2.92,0,0,0,1.72,2.41,9.11,9.11,0,0,0,8.27,0A2.9,2.9,0,0,0,373.83,306.48Z" transform="translate(-155.62 -233.72)"></path>
      </g>
      <path class="cls-11" d="M326.93,352.07l2.85,1.84v7.35l-2.39,1.38a20.27,20.27,0,0,0,2.92,1.57c1.54,0.65,4,1,4.15-1.86s0.14-9.42.14-9.42c0-1.94-.59-2.28-2.14-2.9S329,349.39,326.93,352.07Z" transform="translate(-155.62 -233.72)"></path>
      <polygon class="cls-11" points="173.48 119.33 168.32 94.37 151.41 99.59 151.1 98.59 169.12 93.02 174.51 119.11 173.48 119.33"></polygon>
      <polygon class="cls-11" points="176.58 117.58 171.42 92.62 154.51 97.85 154.19 96.84 172.21 91.27 177.61 117.37 176.58 117.58"></polygon>
      <polygon class="cls-14" points="515.62 229.17 413.11 160.3 444.82 141.03 435.63 136.11 437.5 73.1 344.92 124.63 346.23 191.23 354.38 196 387.24 176.03 491.88 241.54 498.81 237.54 463.9 204.85 514.77 237.69 515.62 229.17"></polygon>
      <path class="cls-23" d="M521,300.65l0.24,83.8,106-60.9L627,239.74Z" transform="translate(-155.62 -233.72)"></path>
      <path class="cls-24" d="M541.88,298.56L542,309.12,619.3,264.7l-0.09-10.56Z" transform="translate(-155.62 -233.72)"></path>
      <path class="cls-24" d="M530.23,349.3l0.1,7.88,88.08-50.59-0.1-7.88Z" transform="translate(-155.62 -233.72)"></path>
      <path class="cls-24" d="M529.5,335.63l0.09,8.13,33.61-19.3-0.09-8.13Z" transform="translate(-155.62 -233.72)"></path>
      <path class="cls-24" d="M571.87,311.3l0.09,8.13,33.61-19.3L605.47,292Z" transform="translate(-155.62 -233.72)"></path>
      <rect class="cls-18" x="512.89" y="299.66" width="121.94" height="1.21" transform="translate(-228.91 92.52) rotate(-29.92)"></rect>
      <path class="cls-11" d="M529.81,312.58a2.51,2.51,0,0,1-1.27-.33,3.17,3.17,0,0,1-1.39-2.91,8.72,8.72,0,0,1,4-6.94,2.86,2.86,0,0,1,4.64,2.65,8.71,8.71,0,0,1-4,6.94A4,4,0,0,1,529.81,312.58Zm3.31-9.57a2.81,2.81,0,0,0-1.36.43h0a7.63,7.63,0,0,0-3.4,5.9,2,2,0,0,0,.79,1.87,2.06,2.06,0,0,0,2-.26,7.63,7.63,0,0,0,3.4-5.9,2,2,0,0,0-.79-1.87A1.32,1.32,0,0,0,533.12,303Z" transform="translate(-155.62 -233.72)"></path>
      <rect class="cls-11" x="524.04" y="314.41" width="6.81" height="1.21" transform="translate(-145.81 412.18) rotate(-63.43)"></rect>
      <polygon class="cls-19" points="360.61 63.96 360.85 148.28 365.58 150.73 365.35 66.93 360.61 63.96 360.61 63.96"></polygon>
      <polygon class="cls-17" points="466.65 3.57 360.61 63.96 365.35 66.93 471.38 6.03 466.65 3.57"></polygon>
      <polygon class="cls-15" points="438.29 92.39 438.29 103.5 463.47 88.97 463.47 77.85 438.29 92.39"></polygon>
      <path class="cls-25" d="M688.62,400.48l1.77,7-1.77,1.78-1.53,4.83h-3.85a74.5,74.5,0,0,1,0-8.53,15.3,15.3,0,0,1,1.36-5.35Z" transform="translate(-155.62 -233.72)"></path>
      <path class="cls-26" d="M684.62,374.44h0a4.17,4.17,0,0,0-3.9,4.4l3.88,21.37c0.14,2.28,4.18,1.34,4,.27l0.4-22.14A4.17,4.17,0,0,0,684.62,374.44Z" transform="translate(-155.62 -233.72)"></path>
      <rect class="cls-26" x="675.26" y="352.74" width="8.31" height="31.24" rx="1.45" ry="1.45" transform="translate(1296.61 128.21) rotate(151.06)"></rect>
      <path class="cls-27" d="M678,467.39v4.42c-2.29,1.58-5.05.95-8.21-.71s-8-4.34-8-4.34c0.55-1,.79-3.08,3.51-2.76s6.34,0.95,6.34.95Z" transform="translate(-155.62 -233.72)"></path>
      <path class="cls-27" d="M662.63,474.88v4.42c-2.29,1.58-5.05.95-8.21-.71s-8-4.34-8-4.34c0.55-1,.79-3.08,3.51-2.76s6.34,0.95,6.34.95Z" transform="translate(-155.62 -233.72)"></path>
      <path class="cls-13" d="M675.78,410.66c0,14.31,1.77,56,1.77,56-2.79,1.39-4.28,2.23-7.16.46s-7.76-45.29-7.76-57.83Z" transform="translate(-155.62 -233.72)"></path>
      <path class="cls-27" d="M634.14,371.09h0a4.17,4.17,0,0,0,1.59-5.66l-12.82-17.53c-1.12-2-4.34.62-3.73,1.51l9.31,20.09A4.17,4.17,0,0,0,634.14,371.09Z" transform="translate(-155.62 -233.72)"></path>
      <path class="cls-27" d="M675.47,357.67c1.56,8.22,0,42.07,0,42.07s-11.68,7.2-15.82,9.13c-6.05,2.83-11.94-1.32-11.94-1.32V376.91C647.7,363.09,673.56,347.61,675.47,357.67Z" transform="translate(-155.62 -233.72)"></path>
      <path class="cls-3" d="M659.64,408.88c4.14-1.93,15.82-9.13,15.82-9.13a42.47,42.47,0,0,1,.69,7.58c0,3.7-2.59,7.35-5.77,9.25-3.68,2.2-8.42,5-10.75,6.06a10.71,10.71,0,0,1-5.72.92,7,7,0,0,1-6.22-7v-9S653.59,411.7,659.64,408.88Z" transform="translate(-155.62 -233.72)"></path>
      <rect class="cls-27" x="639.76" y="355.63" width="8.31" height="31.24" rx="1.45" ry="1.45" transform="translate(-18.24 681.47) rotate(-77.01)"></rect>
      <path class="cls-3" d="M660.86,418.74c0,14.31,1.77,56,1.77,56-2.79,1.39-4.28,2.23-7.16.46s-7.76-45.29-7.76-57.83Z" transform="translate(-155.62 -233.72)"></path>
      <rect class="cls-25" x="652.25" y="330.89" width="17.1" height="26.91" rx="2.99" ry="2.99" transform="translate(1066.58 600.58) rotate(-166.41)"></rect>
      <path class="cls-25" d="M661.84,349.76h0c1.9,0,3.45,1.23,3.45,2.73v6.73c0,1.5-1.55,2.73-3.45,2.73h0c-1.9,0-3.45-1.23-3.45-2.73v-6.73C658.39,351,659.94,349.76,661.84,349.76Z" transform="translate(-155.62 -233.72)"></path>
      <path d="M660.8,351.55c0.46-2.56,2.33-5.42.63-6.25s-2.79,1.58-2.79,1.58l-2-1.28s0.42-.92.86-2a2.52,2.52,0,0,0-.61-2.83l-3.34-3s-2.47-4.17-.69-7.6c0.61-1.17,8.31.36,10.89,1l0.37,0.09a8.38,8.38,0,0,1,6.16,10.09l-2.4,9.91a8.28,8.28,0,0,1-2.27,4l-1.69-.12C662.31,355,660.51,353.17,660.8,351.55Z" transform="translate(-155.62 -233.72)"></path>
      <path class="cls-25" d="M622.74,348.54l-8.42-10.64-1.37.59,3.31,5.71c-2.2,2.28-2.76,5.16-1.24,5.48s5,1.29,5,1.29Z" transform="translate(-155.62 -233.72)"></path>
    </g>
  </g>
</svg>
